<?xml version="1.0" encoding="utf-8"?>
<!-- Generator: Adobe Illustrator 15.0.2, SVG Export Plug-In . SVG Version: 6.00 Build 0)  -->
<!DOCTYPE svg PUBLIC "-//W3C//DTD SVG 1.1//EN" "http://www.w3.org/Graphics/SVG/1.1/DTD/svg11.dtd">
<svg version="1.1" id="レイヤー1" xmlns="http://www.w3.org/2000/svg" xmlns:xlink="http://www.w3.org/1999/xlink" x="0px"
	 y="0px" width="841.89px" height="595.275px" viewBox="0 0 841.89 595.275" enable-background="new 0 0 841.89 595.275"
	 xml:space="preserve">
<g>
	<rect x="71.5" y="-76.5" fill="none" stroke="#000000" stroke-width="0.25" width="100" height="150"/>
	<rect x="71.5" y="73.5" fill="none" stroke="#000000" stroke-width="0.25" width="100" height="150"/>
	<rect x="71.5" y="223.5" fill="none" stroke="#000000" stroke-width="0.25" width="100" height="150"/>
	<rect x="71.5" y="373.5" fill="none" stroke="#000000" stroke-width="0.25" width="100" height="150"/>
	<rect x="71.5" y="523.5" fill="none" stroke="#000000" stroke-width="0.25" width="100" height="150"/>
	<rect x="171.5" y="-76.5" fill="none" stroke="#000000" stroke-width="0.25" width="100" height="150"/>
	<rect x="171.5" y="73.5" fill="none" stroke="#000000" stroke-width="0.25" width="100" height="150"/>
	<rect x="171.5" y="223.5" fill="none" stroke="#000000" stroke-width="0.25" width="100" height="150"/>
	<rect x="171.5" y="373.5" fill="none" stroke="#000000" stroke-width="0.25" width="100" height="150"/>
	<rect x="171.5" y="523.5" fill="none" stroke="#000000" stroke-width="0.25" width="100" height="150"/>
	<rect x="271.5" y="-76.5" fill="none" stroke="#000000" stroke-width="0.25" width="100" height="150"/>
	<rect x="271.5" y="73.5" fill="none" stroke="#000000" stroke-width="0.25" width="100" height="150"/>
	<rect x="271.5" y="223.5" fill="none" stroke="#000000" stroke-width="0.25" width="100" height="150"/>
	<rect x="271.5" y="373.5" fill="none" stroke="#000000" stroke-width="0.25" width="100" height="150"/>
	<rect x="271.5" y="523.5" fill="none" stroke="#000000" stroke-width="0.25" width="100" height="150"/>
	<rect x="371.5" y="-76.5" fill="none" stroke="#000000" stroke-width="0.25" width="100" height="150"/>
	<rect x="371.5" y="73.5" fill="none" stroke="#000000" stroke-width="0.25" width="100" height="150"/>
	<rect x="371.5" y="223.5" fill="none" stroke="#000000" stroke-width="0.25" width="100" height="150"/>
	<rect x="371.5" y="373.5" fill="none" stroke="#000000" stroke-width="0.25" width="100" height="150"/>
	<rect x="371.5" y="523.5" fill="none" stroke="#000000" stroke-width="0.25" width="100" height="150"/>
	<rect x="471.5" y="-76.5" fill="none" stroke="#000000" stroke-width="0.25" width="100" height="150"/>
	<rect x="471.5" y="73.5" fill="none" stroke="#000000" stroke-width="0.25" width="100" height="150"/>
	<rect x="471.5" y="223.5" fill="none" stroke="#000000" stroke-width="0.25" width="100" height="150"/>
	<rect x="471.5" y="373.5" fill="none" stroke="#000000" stroke-width="0.25" width="100" height="150"/>
	<rect x="471.5" y="523.5" fill="none" stroke="#000000" stroke-width="0.25" width="100" height="150"/>
	<rect x="571.5" y="-76.5" fill="none" stroke="#000000" stroke-width="0.25" width="100" height="150"/>
	<rect x="571.5" y="73.5" fill="none" stroke="#000000" stroke-width="0.25" width="100" height="150"/>
	<rect x="571.5" y="223.5" fill="none" stroke="#000000" stroke-width="0.25" width="100" height="150"/>
	<rect x="571.5" y="373.5" fill="none" stroke="#000000" stroke-width="0.25" width="100" height="150"/>
	<rect x="571.5" y="523.5" fill="none" stroke="#000000" stroke-width="0.25" width="100" height="150"/>
	<rect x="671.5" y="-76.5" fill="none" stroke="#000000" stroke-width="0.25" width="100" height="150"/>
	<rect x="671.5" y="73.5" fill="none" stroke="#000000" stroke-width="0.25" width="100" height="150"/>
	<rect x="671.5" y="223.5" fill="none" stroke="#000000" stroke-width="0.25" width="100" height="150"/>
	<rect x="671.5" y="373.5" fill="none" stroke="#000000" stroke-width="0.25" width="100" height="150"/>
	<rect x="671.5" y="523.5" fill="none" stroke="#000000" stroke-width="0.25" width="100" height="150"/>
	<rect x="771.5" y="-76.5" fill="none" stroke="#000000" stroke-width="0.25" width="100" height="150"/>
	<rect x="771.5" y="73.5" fill="none" stroke="#000000" stroke-width="0.25" width="100" height="150"/>
	<rect x="771.5" y="223.5" fill="none" stroke="#000000" stroke-width="0.25" width="100" height="150"/>
	<rect x="771.5" y="373.5" fill="none" stroke="#000000" stroke-width="0.25" width="100" height="150"/>
	<rect x="771.5" y="523.5" fill="none" stroke="#000000" stroke-width="0.25" width="100" height="150"/>
</g>
<g>
	<rect x="120.5" y="-41.501" width="2" height="73"/>
	<rect x="118" y="108.499" width="7" height="73"/>
	<rect x="115.5" y="258.499" width="12" height="73"/>
	<rect x="113" y="408.5" width="17" height="73"/>
	<rect x="110.5" y="558.5" width="22" height="73"/>
</g>
<g>
	<polygon points="521.467,613 521.268,613 506.701,558.5 485,558.5 511,631.5 532,631.5 558,558.5 536.701,558.5 	"/>
	<polygon points="503.126,408.5 486.25,408.5 513.25,481.5 529.75,481.5 556.75,408.5 540.276,408.5 521.634,466.875 
		521.435,466.875 	"/>
	<polygon points="499.551,258.5 487.5,258.5 515.5,331.5 527.5,331.5 555.5,258.5 543.852,258.5 521.801,320.749 521.602,320.749 	
		"/>
	<polygon points="495.86,108.5 488.75,108.5 517.75,181.5 525.25,181.5 554.25,108.5 547.341,108.5 521.7,175.299 521.501,175.299 	
		"/>
	<polygon points="521.4,29.85 492.17,-41.5 490,-41.5 520,31.5 523,31.5 553,-41.5 550.83,-41.5 521.6,29.85 	"/>
</g>
<g>
	<g>
		<rect x="194.5" y="558.5" width="21.5" height="73"/>
		<rect x="227" y="558.5" width="21.5" height="73"/>
	</g>
	<g>
		<rect x="198" y="408.5" width="16.625" height="73"/>
		<rect x="228.375" y="408.5" width="16.625" height="73"/>
	</g>
	<g>
		<rect x="201.5" y="258.5" width="11.75" height="73"/>
		<rect x="229.75" y="258.5" width="11.75" height="73"/>
	</g>
	<g>
		<rect x="205.25" y="108.5" width="6.875" height="73"/>
		<rect x="230.875" y="108.5" width="6.875" height="73"/>
	</g>
	<g>
		<rect x="209" y="-41.5" width="2" height="73"/>
		<rect x="232" y="-41.5" width="2" height="73"/>
	</g>
</g>
<g>
	<g>
		<rect x="281" y="558.5" width="21" height="73"/>
		<rect x="311" y="558.5" width="21" height="73"/>
		<rect x="341" y="558.5" width="21" height="73"/>
	</g>
	<g>
		<rect x="285.375" y="408.5" width="16.25" height="73"/>
		<rect x="313.375" y="408.5" width="16.25" height="73"/>
		<rect x="341.375" y="408.5" width="16.25" height="73"/>
	</g>
	<g>
		<rect x="289.75" y="258.5" width="11.5" height="73"/>
		<rect x="315.75" y="258.5" width="11.5" height="73"/>
		<rect x="341.75" y="258.5" width="11.5" height="73"/>
	</g>
	<g>
		<rect x="294.625" y="108.5" width="6.75" height="73"/>
		<rect x="318.125" y="108.5" width="6.75" height="73"/>
		<rect x="341.625" y="108.5" width="6.75" height="73"/>
	</g>
	<g>
		<rect x="299.5" y="-41.5" width="2" height="73"/>
		<rect x="320.5" y="-41.5" width="2" height="73"/>
		<rect x="341.5" y="-41.5" width="2" height="73"/>
	</g>
</g>
<g>
	<g>
		<rect x="379" y="558.5" width="20.5" height="73"/>
		<polygon points="435.467,612.5 435.267,612.5 423.7,558.5 402.5,558.5 425,631.5 446,631.5 468.5,558.5 447.7,558.5 		"/>
	</g>
	<g>
		<rect x="382.5" y="408.5" width="15.875" height="73"/>
		<polygon points="418.625,408.5 402.125,408.5 426,481.5 442.5,481.5 466.375,408.5 450.275,408.5 434.384,466.5 434.184,466.5 		
			"/>
	</g>
	<g>
		<rect x="386" y="258.5" width="11.25" height="73"/>
		<polygon points="413.55,258.5 401.75,258.5 427,331.5 439,331.5 464.25,258.5 452.851,258.5 433.301,320.5 433.101,320.5 		"/>
	</g>
	<g>
		<rect x="389.25" y="108.5" width="6.625" height="73"/>
		<polygon points="408.6,108.5 401.625,108.5 428.25,181.5 435.75,181.5 462.375,108.5 455.6,108.5 432.2,175.175 432,175.175 		"/>
	</g>
	<g>
		<rect x="392.5" y="-41.5" width="2" height="73"/>
		<polygon points="430.899,29.85 403.65,-41.5 401.5,-41.5 429.5,31.5 432.5,31.5 460.5,-41.5 458.35,-41.5 431.1,29.85 		"/>
	</g>
</g>
<g>
	<g>
		<rect x="643.5" y="558.5" width="20.5" height="73"/>
		<polygon points="607.533,612.5 607.733,612.5 619.3,558.5 640.5,558.5 618,631.5 597,631.5 574.5,558.5 595.3,558.5 		"/>
	</g>
	<g>
		<rect x="644.625" y="408.5" width="15.875" height="73"/>
		<polygon points="624.375,408.5 640.875,408.5 617,481.5 600.5,481.5 576.625,408.5 592.725,408.5 608.616,466.5 608.816,466.5 		
			"/>
	</g>
	<g>
		<rect x="645.75" y="258.5" width="11.25" height="73"/>
		<polygon points="629.45,258.5 641.25,258.5 616,331.5 604,331.5 578.75,258.5 590.149,258.5 609.699,320.5 609.899,320.5 		"/>
	</g>
	<g>
		<rect x="647.125" y="108.5" width="6.625" height="73"/>
		<polygon points="634.4,108.5 641.375,108.5 614.75,181.5 607.25,181.5 580.625,108.5 587.4,108.5 610.8,175.175 611,175.175 		"/>
	</g>
	<g>
		<rect x="648.5" y="-41.5" width="2" height="73"/>
		<polygon points="612.101,29.85 639.35,-41.5 641.5,-41.5 613.5,31.5 610.5,31.5 582.5,-41.5 584.65,-41.5 611.9,29.85 		"/>
	</g>
</g>
<g>
	<g>
		<polygon points="704.9,29.752 679.623,-41.5 677.5,-41.5 703.5,31.5 706.5,31.5 732.5,-41.5 730.377,-41.5 705.1,29.752 		"/>
		<rect x="738.5" y="-41.5" width="2" height="73"/>
		<rect x="757.5" y="-41.5" width="2" height="73"/>
	</g>
	<g>
		<polygon points="724.039,108.5 730.875,108.5 707.5,181.5 700,181.5 676.625,108.5 683.262,108.5 703.55,175.126 703.75,175.126 
					"/>
		<rect x="734.75" y="108.5" width="6.5" height="73"/>
		<rect x="754.25" y="108.5" width="6.5" height="73"/>
	</g>
	<g>
		<polygon points="717.7,258.5 729.25,258.5 708.5,331.5 696.5,331.5 675.75,258.5 686.899,258.5 702.199,320.5 702.399,320.5 		"/>
		<rect x="731" y="258.5" width="11" height="73"/>
		<rect x="751" y="258.5" width="11" height="73"/>
	</g>
	<g>
		<polygon points="712.25,408.5 727.625,408.5 709.5,481.5 693,481.5 674.875,408.5 689.85,408.5 701.116,466.5 701.316,466.5 		"/>
		<rect x="729.25" y="408.5" width="13.5" height="73"/>
		<rect x="749.75" y="408.5" width="13.5" height="73"/>
	</g>
	<g>
		<polygon points="700.033,612.5 700.233,612.5 706.8,558.5 726,558.5 710.5,631.5 689.5,631.5 674,558.5 692.8,558.5 		"/>
		<rect x="727.5" y="558.5" width="16" height="73"/>
		<rect x="748.5" y="558.5" width="16" height="73"/>
	</g>
</g>
<g>
	<g>
		<polygon points="794.533,611.5 794.733,611.5 800.3,558.5 815.5,558.5 806,631.5 785,631.5 773.5,558.5 788.3,558.5 		"/>
		<rect x="817" y="558.5" width="14" height="73"/>
		<rect x="835" y="558.5" width="14" height="73"/>
		<rect x="853" y="558.5" width="14" height="73"/>
	</g>
	<g>
		<polygon points="795.375,465.977 795.574,465.977 803.832,408.5 816.5,408.5 804.375,481.5 787.875,481.5 774.25,408.5 
			786.618,408.5 		"/>
		<rect x="818.125" y="408.5" width="11.75" height="73"/>
		<rect x="835.875" y="408.5" width="11.75" height="73"/>
		<rect x="853.625" y="408.5" width="11.75" height="73"/>
	</g>
	<g>
		<polygon points="796.217,320.453 796.416,320.453 807.363,258.5 817.5,258.5 802.75,331.5 790.75,331.5 775,258.5 784.937,258.5 
					"/>
		<rect x="819.25" y="258.5" width="9.5" height="73"/>
		<rect x="836.75" y="258.5" width="9.5" height="73"/>
		<rect x="854.25" y="258.5" width="9.5" height="73"/>
	</g>
	<g>
		<polygon points="797.059,174.93 797.258,174.93 812.395,108.5 818.5,108.5 801.125,181.5 793.625,181.5 775.75,108.5 
			781.755,108.5 		"/>
		<rect x="821.875" y="108.5" width="5.75" height="73"/>
		<rect x="839.125" y="108.5" width="5.75" height="73"/>
		<rect x="856.375" y="108.5" width="5.75" height="73"/>
	</g>
	<g>
		<polygon points="797.9,29.407 778.573,-41.5 776.5,-41.5 796.5,31.5 799.5,31.5 819.5,-41.5 817.427,-41.5 798.1,29.407 		"/>
		<rect x="824.5" y="-41.5" width="2" height="73"/>
		<rect x="841.5" y="-41.5" width="2" height="73"/>
		<rect x="858.5" y="-41.5" width="2" height="73"/>
	</g>
</g>
</svg>
