<?xml version="1.0" encoding="utf-8"?>
<!-- Generator: Adobe Illustrator 15.0.2, SVG Export Plug-In . SVG Version: 6.00 Build 0)  -->
<!DOCTYPE svg PUBLIC "-//W3C//DTD SVG 1.1//EN" "http://www.w3.org/Graphics/SVG/1.1/DTD/svg11.dtd">
<svg version="1.1" id="レイヤー1" xmlns="http://www.w3.org/2000/svg" xmlns:xlink="http://www.w3.org/1999/xlink" x="0px"
	 y="0px" width="841.89px" height="595.275px" viewBox="0 0 841.89 595.275" enable-background="new 0 0 841.89 595.275"
	 xml:space="preserve">
<g>
	<rect x="71.5" y="-76.5" fill="none" stroke="#000000" stroke-width="0.25" width="100" height="150"/>
	<rect x="71.5" y="73.5" fill="none" stroke="#000000" stroke-width="0.25" width="100" height="150"/>
	<rect x="71.5" y="223.5" fill="none" stroke="#000000" stroke-width="0.25" width="100" height="150"/>
	<rect x="71.5" y="373.5" fill="none" stroke="#000000" stroke-width="0.25" width="100" height="150"/>
	<rect x="71.5" y="523.5" fill="none" stroke="#000000" stroke-width="0.25" width="100" height="150"/>
	<rect x="171.5" y="-76.5" fill="none" stroke="#000000" stroke-width="0.25" width="100" height="150"/>
	<rect x="171.5" y="73.5" fill="none" stroke="#000000" stroke-width="0.25" width="100" height="150"/>
	<rect x="171.5" y="223.5" fill="none" stroke="#000000" stroke-width="0.25" width="100" height="150"/>
	<rect x="171.5" y="373.5" fill="none" stroke="#000000" stroke-width="0.25" width="100" height="150"/>
	<rect x="171.5" y="523.5" fill="none" stroke="#000000" stroke-width="0.25" width="100" height="150"/>
	<rect x="271.5" y="-76.5" fill="none" stroke="#000000" stroke-width="0.25" width="100" height="150"/>
	<rect x="271.5" y="73.5" fill="none" stroke="#000000" stroke-width="0.25" width="100" height="150"/>
	<rect x="271.5" y="223.5" fill="none" stroke="#000000" stroke-width="0.25" width="100" height="150"/>
	<rect x="271.5" y="373.5" fill="none" stroke="#000000" stroke-width="0.25" width="100" height="150"/>
	<rect x="271.5" y="523.5" fill="none" stroke="#000000" stroke-width="0.25" width="100" height="150"/>
	<rect x="371.5" y="-76.5" fill="none" stroke="#000000" stroke-width="0.25" width="100" height="150"/>
	<rect x="371.5" y="73.5" fill="none" stroke="#000000" stroke-width="0.25" width="100" height="150"/>
	<rect x="371.5" y="223.5" fill="none" stroke="#000000" stroke-width="0.25" width="100" height="150"/>
	<rect x="371.5" y="373.5" fill="none" stroke="#000000" stroke-width="0.25" width="100" height="150"/>
	<rect x="371.5" y="523.5" fill="none" stroke="#000000" stroke-width="0.25" width="100" height="150"/>
	<rect x="471.5" y="-76.5" fill="none" stroke="#000000" stroke-width="0.25" width="100" height="150"/>
	<rect x="471.5" y="73.5" fill="none" stroke="#000000" stroke-width="0.25" width="100" height="150"/>
	<rect x="471.5" y="223.5" fill="none" stroke="#000000" stroke-width="0.25" width="100" height="150"/>
	<rect x="471.5" y="373.5" fill="none" stroke="#000000" stroke-width="0.25" width="100" height="150"/>
	<rect x="471.5" y="523.5" fill="none" stroke="#000000" stroke-width="0.25" width="100" height="150"/>
	<rect x="571.5" y="-76.5" fill="none" stroke="#000000" stroke-width="0.25" width="100" height="150"/>
	<rect x="571.5" y="73.5" fill="none" stroke="#000000" stroke-width="0.25" width="100" height="150"/>
	<rect x="571.5" y="223.5" fill="none" stroke="#000000" stroke-width="0.25" width="100" height="150"/>
	<rect x="571.5" y="373.5" fill="none" stroke="#000000" stroke-width="0.25" width="100" height="150"/>
	<rect x="571.5" y="523.5" fill="none" stroke="#000000" stroke-width="0.25" width="100" height="150"/>
	<rect x="671.5" y="-76.5" fill="none" stroke="#000000" stroke-width="0.25" width="100" height="150"/>
	<rect x="671.5" y="73.5" fill="none" stroke="#000000" stroke-width="0.25" width="100" height="150"/>
	<rect x="671.5" y="223.5" fill="none" stroke="#000000" stroke-width="0.25" width="100" height="150"/>
	<rect x="671.5" y="373.5" fill="none" stroke="#000000" stroke-width="0.25" width="100" height="150"/>
	<rect x="671.5" y="523.5" fill="none" stroke="#000000" stroke-width="0.25" width="100" height="150"/>
	<rect x="771.5" y="-76.5" fill="none" stroke="#000000" stroke-width="0.25" width="100" height="150"/>
	<rect x="771.5" y="73.5" fill="none" stroke="#000000" stroke-width="0.25" width="100" height="150"/>
	<rect x="771.5" y="223.5" fill="none" stroke="#000000" stroke-width="0.25" width="100" height="150"/>
	<rect x="771.5" y="373.5" fill="none" stroke="#000000" stroke-width="0.25" width="100" height="150"/>
	<rect x="771.5" y="523.5" fill="none" stroke="#000000" stroke-width="0.25" width="100" height="150"/>
</g>
<g>
	<g>
		<rect x="120.5" y="-43.5" width="2" height="11"/>
		<rect x="120.5" y="-20.5" width="2" height="52"/>
	</g>
	<g>
		<rect x="118.351" y="106.5" width="6.3" height="11"/>
		<rect x="118.351" y="129.5" width="6.3" height="52"/>
	</g>
	<g>
		<rect x="116.201" y="256.5" width="10.6" height="11"/>
		<rect x="116.201" y="279.5" width="10.6" height="52"/>
	</g>
	<g>
		<rect x="113.851" y="406.5" width="15.3" height="12.5"/>
		<rect x="113.851" y="429.5" width="15.3" height="52"/>
	</g>
	<g>
		<rect x="111.5" y="556.5" width="20" height="14"/>
		<rect x="111.5" y="579.5" width="20" height="51.999"/>
	</g>
</g>
<g>
	<polygon points="521.6,621 512.701,579.5 492,579.5 508.5,631.5 534.5,631.5 551,579.5 530.701,579.5 521.801,621 	"/>
	<polygon points="509.825,429.5 493.75,429.5 511.5,481.5 531.5,481.5 549.25,429.5 533.825,429.5 521.801,473.375 521.6,473.375 	
		"/>
	<polygon points="506.949,279.5 495.5,279.5 514.5,331.5 528.5,331.5 547.5,279.5 536.949,279.5 521.801,325.75 521.6,325.75 	"/>
	<polygon points="503.314,129.5 496.5,129.5 517.25,181.5 525.75,181.5 546.5,129.5 540.135,129.5 521.7,177.825 521.5,177.825 	"/>
	<polygon points="521.4,29.9 499.68,-20.5 497.5,-20.5 520,31.5 523,31.5 545.5,-20.5 543.32,-20.5 521.6,29.9 	"/>
</g>
<g>
	<g>
		<g>
			<rect x="196.5" y="556.501" width="19.5" height="14"/>
			<rect x="196.5" y="579.501" width="19.5" height="52"/>
		</g>
		<g>
			<rect x="227" y="556.501" width="19.5" height="14"/>
			<rect x="227" y="579.501" width="19.5" height="52"/>
		</g>
	</g>
	<g>
		<g>
			<rect x="199.625" y="406.5" width="15" height="12.5"/>
			<rect x="199.625" y="429.5" width="15" height="52"/>
		</g>
		<g>
			<rect x="228.375" y="406.5" width="15" height="12.5"/>
			<rect x="228.375" y="429.5" width="15" height="52"/>
		</g>
	</g>
	<g>
		<g>
			<rect x="202.75" y="256.5" width="10.5" height="11"/>
			<rect x="202.75" y="279.5" width="10.5" height="52"/>
		</g>
		<g>
			<rect x="229.75" y="256.5" width="10.5" height="11"/>
			<rect x="229.75" y="279.5" width="10.5" height="52"/>
		</g>
	</g>
	<g>
		<g>
			<rect x="205.875" y="106.5" width="6.25" height="11"/>
			<rect x="205.875" y="129.5" width="6.25" height="52"/>
		</g>
		<g>
			<rect x="230.875" y="106.5" width="6.25" height="11"/>
			<rect x="230.875" y="129.5" width="6.25" height="52"/>
		</g>
	</g>
	<g>
		<g>
			<rect x="209" y="-43.5" width="2" height="11"/>
			<rect x="209" y="-20.5" width="2" height="52"/>
		</g>
		<g>
			<rect x="232" y="-43.5" width="2" height="11"/>
			<rect x="232" y="-20.5" width="2" height="52"/>
		</g>
	</g>
</g>
<g>
	<g>
		<g>
			<rect x="284" y="556.501" width="19" height="14"/>
			<rect x="284" y="579.501" width="19" height="52"/>
		</g>
		<g>
			<rect x="312" y="556.501" width="19" height="14"/>
			<rect x="312" y="579.501" width="19" height="52"/>
		</g>
		<g>
			<rect x="340" y="556.501" width="19" height="14"/>
			<rect x="340" y="579.501" width="19" height="52"/>
		</g>
	</g>
	<g>
		<g>
			<rect x="287.625" y="406.5" width="14.75" height="12.5"/>
			<rect x="287.625" y="429.5" width="14.75" height="52"/>
		</g>
		<g>
			<rect x="314.125" y="406.5" width="14.75" height="12.5"/>
			<rect x="314.125" y="429.5" width="14.75" height="52"/>
		</g>
		<g>
			<rect x="340.625" y="406.5" width="14.75" height="12.5"/>
			<rect x="340.625" y="429.5" width="14.75" height="52"/>
		</g>
	</g>
	<g>
		<g>
			<rect x="291.25" y="256.5" width="10.5" height="11"/>
			<rect x="291.25" y="279.5" width="10.5" height="52"/>
		</g>
		<g>
			<rect x="316.25" y="256.5" width="10.5" height="11"/>
			<rect x="316.25" y="279.5" width="10.5" height="52"/>
		</g>
		<g>
			<rect x="341.25" y="256.5" width="10.5" height="11"/>
			<rect x="341.25" y="279.5" width="10.5" height="52"/>
		</g>
	</g>
	<g>
		<g>
			<rect x="295.375" y="106.5" width="6.25" height="11"/>
			<rect x="295.375" y="129.5" width="6.25" height="52"/>
		</g>
		<g>
			<rect x="318.375" y="106.5" width="6.25" height="11"/>
			<rect x="318.375" y="129.5" width="6.25" height="52"/>
		</g>
		<g>
			<rect x="341.375" y="106.5" width="6.25" height="11"/>
			<rect x="341.375" y="129.5" width="6.25" height="52"/>
		</g>
	</g>
	<g>
		<g>
			<rect x="299.5" y="-43.5" width="2" height="11"/>
			<rect x="299.5" y="-20.5" width="2" height="52"/>
		</g>
		<g>
			<rect x="320.5" y="-43.5" width="2" height="11"/>
			<rect x="320.5" y="-20.5" width="2" height="52"/>
		</g>
		<g>
			<rect x="341.5" y="-43.5" width="2" height="11"/>
			<rect x="341.5" y="-20.5" width="2" height="52"/>
		</g>
	</g>
</g>
<g>
	<g>
		<g>
			<rect x="384" y="556.501" width="18.5" height="14"/>
			<rect x="384" y="579.501" width="18.5" height="52"/>
		</g>
		<polygon points="434.6,620.501 426.7,579.501 406.5,579.501 421.5,631.501 447.5,631.501 462.5,579.501 442.7,579.501 
			434.8,620.501 		"/>
	</g>
	<g>
		<g>
			<rect x="387.75" y="406.5" width="14.5" height="12.5"/>
			<rect x="387.75" y="429.5" width="14.5" height="52"/>
		</g>
		<polygon points="422.449,429.5 406.75,429.5 423.25,481.5 443.25,481.5 459.75,429.5 444.449,429.5 433.551,473 433.35,473 		"/>
	</g>
	<g>
		<g>
			<rect x="391.5" y="256.5" width="10.5" height="11"/>
			<rect x="391.5" y="279.5" width="10.5" height="52"/>
		</g>
		<polygon points="418.199,279.5 407,279.5 425,331.5 439,331.5 457,279.5 446.199,279.5 432.301,325.5 432.1,325.5 		"/>
	</g>
	<g>
		<g>
			<rect x="394.25" y="106.5" width="6.25" height="11"/>
			<rect x="394.25" y="129.5" width="6.25" height="52"/>
		</g>
		<polygon points="413.18,129.5 406.5,129.5 426.25,181.5 434.75,181.5 454.5,129.5 448.02,129.5 430.7,177.7 430.5,177.7 		"/>
	</g>
	<g>
		<g>
			<rect x="397" y="-43.5" width="2" height="11"/>
			<rect x="397" y="-20.5" width="2" height="52"/>
		</g>
		<polygon points="428.899,29.9 408.16,-20.5 406,-20.5 427.5,31.5 430.5,31.5 452,-20.5 449.84,-20.5 429.1,29.9 		"/>
	</g>
</g>
<g>
	<g>
		<g>
			<rect x="640.5" y="556.501" width="18.5" height="14"/>
			<rect x="640.5" y="579.501" width="18.5" height="52"/>
		</g>
		<polygon points="608.4,620.501 616.3,579.501 636.5,579.501 621.5,631.501 595.5,631.501 580.5,579.501 600.3,579.501 
			608.2,620.501 		"/>
	</g>
	<g>
		<g>
			<rect x="640.75" y="406.5" width="14.5" height="12.5"/>
			<rect x="640.75" y="429.5" width="14.5" height="52"/>
		</g>
		<polygon points="620.551,429.5 636.25,429.5 619.75,481.5 599.75,481.5 583.25,429.5 598.551,429.5 609.449,473 609.65,473 		"/>
	</g>
	<g>
		<g>
			<rect x="641" y="256.5" width="10.5" height="11"/>
			<rect x="641" y="279.5" width="10.5" height="52"/>
		</g>
		<polygon points="624.801,279.5 636,279.5 618,331.5 604,331.5 586,279.5 596.801,279.5 610.699,325.5 610.9,325.5 		"/>
	</g>
	<g>
		<g>
			<rect x="642.5" y="106.5" width="6.25" height="11"/>
			<rect x="642.5" y="129.5" width="6.25" height="52"/>
		</g>
		<polygon points="629.82,129.5 636.5,129.5 616.75,181.5 608.25,181.5 588.5,129.5 594.98,129.5 612.3,177.7 612.5,177.7 		"/>
	</g>
	<g>
		<g>
			<rect x="644" y="-43.5" width="2" height="11"/>
			<rect x="644" y="-20.5" width="2" height="52"/>
		</g>
		<polygon points="614.101,29.9 634.84,-20.5 637,-20.5 615.5,31.5 612.5,31.5 591,-20.5 593.16,-20.5 613.9,29.9 		"/>
	</g>
</g>
<g>
	<g>
		<polygon points="704.9,29.853 685.149,-20.5 683,-20.5 703.5,31.5 706.5,31.5 727,-20.5 724.851,-20.5 705.1,29.853 		"/>
		<g>
			<rect x="733" y="-43.5" width="2" height="11"/>
			<rect x="733" y="-20.5" width="2" height="52"/>
		</g>
		<g>
			<rect x="752" y="-43.5" width="2" height="11"/>
			<rect x="752" y="-20.5" width="2" height="52"/>
		</g>
	</g>
	<g>
		<polygon points="719.826,129.5 726.375,129.5 708,181.5 699.5,181.5 681.125,129.5 687.475,129.5 703.55,177.676 703.75,177.676 
					"/>
		<g>
			<rect x="731.375" y="106.5" width="6.125" height="11.75"/>
			<rect x="731.375" y="129.5" width="6.125" height="52"/>
		</g>
		<g>
			<rect x="750.375" y="106.5" width="6.125" height="11.75"/>
			<rect x="750.375" y="129.5" width="6.125" height="52"/>
		</g>
	</g>
	<g>
		<polygon points="714.801,279.5 725.75,279.5 709.5,331.5 695.5,331.5 679.25,279.5 689.801,279.5 702.199,325.5 702.4,325.5 		"/>
		<g>
			<rect x="729.75" y="256.5" width="10.25" height="12.5"/>
			<rect x="729.75" y="279.5" width="10.25" height="52"/>
		</g>
		<g>
			<rect x="748.75" y="256.5" width="10.25" height="12.5"/>
			<rect x="748.75" y="279.5" width="10.25" height="52"/>
		</g>
	</g>
	<g>
		<polygon points="710.801,429.5 725.125,429.5 711.25,481.5 691.25,481.5 677.375,429.5 691.301,429.5 700.949,473 701.15,473 		
			"/>
		<g>
			<rect x="728.125" y="406.5" width="13.125" height="13.25"/>
			<rect x="728.125" y="429.5" width="13.125" height="52"/>
		</g>
		<g>
			<rect x="748.375" y="406.5" width="13.125" height="13.25"/>
			<rect x="748.375" y="429.5" width="13.125" height="52"/>
		</g>
	</g>
	<g>
		<polygon points="699.9,620.501 706.8,579.501 724.5,579.501 713,631.501 687,631.501 675.5,579.501 692.8,579.501 699.7,620.501 
					"/>
		<g>
			<rect x="726.5" y="556.501" width="16" height="14"/>
			<rect x="726.5" y="579.501" width="16" height="52"/>
		</g>
		<g>
			<rect x="748" y="556.501" width="16" height="14"/>
			<rect x="748" y="579.501" width="16" height="52"/>
		</g>
	</g>
</g>
<g>
	<g>
		<polygon points="798.9,29.688 782.11,-20.5 780,-20.5 797.5,31.5 800.5,31.5 818,-20.5 815.89,-20.5 799.1,29.688 		"/>
		<g>
			<rect x="823" y="-43.5" width="2" height="11"/>
			<rect x="823" y="-20.5" width="2" height="52"/>
		</g>
		<g>
			<rect x="840" y="-43.5" width="2" height="11"/>
			<rect x="840" y="-20.5" width="2" height="52"/>
		</g>
		<g>
			<rect x="857" y="-43.5" width="2" height="11"/>
			<rect x="857" y="-20.5" width="2" height="52"/>
		</g>
	</g>
	<g>
		<polygon points="810.346,129.5 816.625,129.5 801.875,181.5 793.375,181.5 778.625,129.5 784.705,129.5 797.425,177.594 
			797.625,177.594 		"/>
		<g>
			<rect x="820.875" y="106.5" width="5.875" height="11.75"/>
			<rect x="820.875" y="129.5" width="5.875" height="52"/>
		</g>
		<g>
			<rect x="838" y="106.5" width="5.875" height="11.75"/>
			<rect x="838" y="129.5" width="5.875" height="52"/>
		</g>
		<g>
			<rect x="855.125" y="106.5" width="5.875" height="11.75"/>
			<rect x="855.125" y="129.5" width="5.875" height="52"/>
		</g>
	</g>
	<g>
		<polygon points="804.801,279.5 815.25,279.5 803.25,331.5 789.25,331.5 777.25,279.5 787.301,279.5 795.949,325.5 796.15,325.5 		
			"/>
		<g>
			<rect x="818.75" y="256.5" width="9.75" height="12.5"/>
			<rect x="818.75" y="279.5" width="9.75" height="52"/>
		</g>
		<g>
			<rect x="836" y="256.5" width="9.75" height="12.5"/>
			<rect x="836" y="279.5" width="9.75" height="52"/>
		</g>
		<g>
			<rect x="853.25" y="256.5" width="9.75" height="12.5"/>
			<rect x="853.25" y="279.5" width="9.75" height="52"/>
		</g>
	</g>
	<g>
		<polygon points="801.051,429.5 813.875,429.5 804.875,481.5 784.875,481.5 775.875,429.5 788.301,429.5 794.574,473 794.775,473 
					"/>
		<g>
			<rect x="816.625" y="406.5" width="12.125" height="13.25"/>
			<rect x="816.625" y="429.5" width="12.125" height="52"/>
		</g>
		<g>
			<rect x="834.75" y="406.5" width="12.125" height="13.25"/>
			<rect x="834.75" y="429.5" width="12.125" height="52"/>
		</g>
		<g>
			<rect x="852.875" y="406.5" width="12.125" height="13.25"/>
			<rect x="852.875" y="429.5" width="12.125" height="52"/>
		</g>
	</g>
	<g>
		<polygon points="793.4,620.501 797.3,579.501 812.5,579.501 806.5,631.501 780.5,631.501 774.5,579.501 789.3,579.501 
			793.2,620.501 		"/>
		<g>
			<rect x="814.5" y="556.501" width="14.5" height="14"/>
			<rect x="814.5" y="579.501" width="14.5" height="52"/>
		</g>
		<g>
			<rect x="833.5" y="556.501" width="14.5" height="14"/>
			<rect x="833.5" y="579.501" width="14.5" height="52"/>
		</g>
		<g>
			<rect x="852.5" y="556.501" width="14.5" height="14"/>
			<rect x="852.5" y="579.501" width="14.5" height="52"/>
		</g>
	</g>
</g>
</svg>
